<svg width="60" height="60" viewBox="0 0 60 60" fill="none" xmlns="http://www.w3.org/2000/svg">
<path d="M30.5 57C15.3366 57 3 44.6639 3 29.5C3 14.3361 15.3366 2 30.5 2C45.6634 2 58 14.3366 58 29.5C58 44.6634 45.6634 57 30.5 57ZM30.5 2.94497C15.8579 2.94497 3.94497 14.8579 3.94497 29.5C3.94497 44.1421 15.8574 56.055 30.5 56.055C45.1426 56.055 57.055 44.1426 57.055 29.5C57.055 14.8574 45.1426 2.94497 30.5 2.94497Z" fill="white" stroke="white" stroke-width="3" stroke-miterlimit="10"/>
<path d="M15.9452 28.4244V18.728L30.3443 36.8345L45.0548 18.7068V37.9999L46 36.8345V16.0205L30.3519 35.3047L15 15.9999V27.2352L15.9452 28.4244Z" fill="white" stroke="white" stroke-width="3" stroke-miterlimit="10"/>
<path d="M15 34V52H16V35.1671L15 34Z" fill="white" stroke="white" stroke-width="3" stroke-miterlimit="10"/>
<path d="M45.0001 35.1612V52H46.0001V34L45.0001 35.1612Z" fill="white" stroke="white" stroke-width="3" stroke-miterlimit="10"/>
<path d="M47 30L56 19.6116L55.2476 19L47 28.5193V30Z" fill="white" stroke="white" stroke-width="3" stroke-miterlimit="10"/>
<path d="M44 32.3945L30.2967 48.5409L5.72812 19L5 19.5921L30.2895 50L44 33.8445V32.3945Z" fill="white" stroke="white" stroke-width="3" stroke-miterlimit="10"/>
</svg>
